Coordinates
version=1
nRows=23
nColumns=30
inDegrees=yes

Units are S.I. units (second, meters, Newtons, ...)
Angles are in degrees.

endheader
time	floatyaw	floatroll	floatpitch	floatx	floaty	floatz	pro_sup_l	deviation_l	flexion_l	cmc_flexion_l	cmc_abduction_l	mp_flexion_l	ip_flexion_l	2mcp_flexion_l	2mcp_abduction_l	2pm_flexion_l	2md_flexion_l	3mcp_flexion_l	3mcp_abduction_l	3pm_flexion_l	3md_flexion_l	4mcp_flexion_l	4mcp_abduction_l	4pm_flexion_l	4md_flexion_l	5mcp_flexion_l	5mcp_abduction_l	5pm_flexion_l	5md_flexion_l
-1.495000	-4.367428	-0.612882	99.545687	-0.102851	-0.193950	-0.017190	88.513872	-0.033852	-0.429400	15.810936	6.389282	-22.214946	-35.129455	37.748522	8.368120	47.208242	32.661620	22.444234	4.714525	48.396503	32.404183	11.275328	-4.620896	63.322892	42.565724	6.126088	-8.500728	62.298211	42.016493
-1.485000	-4.367428	-0.612882	99.545687	-0.102846	-0.193953	-0.017191	88.510713	-0.034982	-0.434323	15.796285	6.391094	-22.208820	-35.124107	37.765040	8.367426	47.192502	32.656784	22.459695	4.713685	48.401221	32.408050	11.303593	-4.629156	63.321462	42.569921	6.106118	-8.479912	62.312205	42.018173
-1.475000	-4.367428	-0.612882	99.545687	-0.102839	-0.193952	-0.017189	88.511089	-0.037755	-0.437823	15.784602	6.394490	-22.205955	-35.121898	37.788777	8.368230	47.186173	32.655677	22.483481	4.709047	48.409716	32.411319	11.328701	-4.634750	63.327377	42.576851	6.085741	-8.456364	62.327857	42.018848
-1.465000	-4.367428	-0.612882	99.545687	-0.102830	-0.193949	-0.017185	88.514551	-0.042399	-0.440067	15.777525	6.399294	-22.208512	-35.124494	37.814248	8.368528	47.195814	32.661045	22.511112	4.702261	48.425503	32.414650	11.345513	-4.636699	63.340897	42.585697	6.065947	-8.434613	62.349900	42.021629
-1.455000	-4.367428	-0.612882	99.545687	-0.102820	-0.193944	-0.017180	88.520859	-0.047388	-0.441217	15.774060	6.403730	-22.216598	-35.131352	37.834275	8.366290	47.220975	32.673145	22.537581	4.695399	48.447654	32.418074	11.352663	-4.635105	63.357358	42.594285	6.046660	-8.418279	62.381252	42.029376
-1.445000	-4.367428	-0.612882	99.545687	-0.102812	-0.193940	-0.017174	88.528298	-0.051203	-0.441483	15.770999	6.406820	-22.228185	-35.140073	37.843776	8.360740	47.254293	32.689375	22.559144	4.690238	48.471644	32.420960	11.352438	-4.630887	63.370037	42.600246	6.028039	-8.409614	62.421226	42.042798
-1.435000	-4.367428	-0.612882	99.545687	-0.102808	-0.193935	-0.017170	88.532636	-0.053986	-0.441178	15.764611	6.410306	-22.239992	-35.147686	37.842655	8.352978	47.285355	32.705431	22.574210	4.687822	48.492399	32.422590	11.348653	-4.625322	63.374256	42.602429	6.011827	-8.409659	62.465362	42.059449
-1.425000	-4.367428	-0.612882	99.545687	-0.102806	-0.193934	-0.017168	88.528209	-0.057721	-0.440773	15.752615	6.418190	-22.248821	-35.152050	37.836151	8.345327	47.305996	32.717393	22.583145	4.688399	48.507477	32.422892	11.344368	-4.619830	63.370086	42.601654	6.001322	-8.418166	62.506854	42.074359
-1.415000	-4.367428	-0.612882	99.545687	-0.102806	-0.193938	-0.017169	88.510782	-0.064895	-0.440889	15.735338	6.433827	-22.252691	-35.152559	37.832480	8.339817	47.313956	32.723528	22.587334	4.691660	48.518379	32.422817	11.340963	-4.615936	63.362129	42.600305	5.999743	-8.433175	62.538907	42.082140
-1.405000	-4.367428	-0.612882	99.545687	-0.102807	-0.193947	-0.017174	88.480429	-0.076626	-0.442144	15.715337	6.456485	-22.251395	-35.149943	37.839147	8.336805	47.312838	32.724682	22.588264	4.697027	48.529239	32.423988	11.338658	-4.614988	63.356810	42.601049	6.008063	-8.450875	62.557135	42.079497
-1.395000	-4.367428	-0.612882	99.545687	-0.102807	-0.193961	-0.017180	88.442552	-0.091458	-0.444845	15.695719	6.479903	-22.246444	-35.145540	37.859943	8.334659	47.308642	32.723039	22.587187	4.703764	48.543772	32.427647	11.337476	-4.617521	63.359008	42.605453	6.023747	-8.466369	62.561071	42.066710
-1.385000	-4.367428	-0.612882	99.545687	-0.102806	-0.193977	-0.017189	88.406162	-0.105636	-0.448630	15.678213	6.494232	-22.240509	-35.140606	37.893805	8.330676	47.305568	32.720332	22.585233	4.710922	48.562640	32.433597	11.337718	-4.622760	63.369879	42.613233	6.041389	-8.475349	62.553959	42.047200
-1.375000	-4.367428	-0.612882	99.545687	-0.102807	-0.193988	-0.017197	88.380010	-0.114989	-0.452293	15.662284	6.490785	-22.236440	-35.135984	37.935472	8.322738	47.304193	32.717028	22.583400	4.717331	48.583177	32.440063	11.339806	-4.628825	63.386784	42.622473	6.055312	-8.476111	62.540721	42.025410
-1.365000	-4.367428	-0.612882	99.545687	-0.102811	-0.193991	-0.017204	88.368566	-0.117465	-0.454096	15.645881	6.467107	-22.236088	-35.132078	37.977312	8.310716	47.302986	32.713017	22.582233	4.721866	48.601656	32.444738	11.343980	-4.633691	63.404992	42.630589	6.062895	-8.470775	62.525291	42.004370
-1.355000	-4.367428	-0.612882	99.545687	-0.102818	-0.193984	-0.017208	88.370275	-0.114595	-0.452639	15.627297	6.429131	-22.239416	-35.128940	38.011821	8.296777	47.301272	32.708863	22.581684	4.723911	48.616207	32.446187	11.350402	-4.636307	63.420025	42.635437	6.066229	-8.464520	62.509258	41.984566
-1.345000	-4.367428	-0.612882	99.545687	-0.102826	-0.193969	-0.017206	88.379232	-0.110677	-0.447888	15.606761	6.388536	-22.244489	-35.126336	38.034173	8.284433	47.300817	32.706251	22.581595	4.723733	48.628052	32.444526	11.359695	-4.637212	63.429416	42.635973	6.070369	-8.462557	62.492865	41.964903
-1.335000	-4.367428	-0.612882	99.545687	-0.102833	-0.193951	-0.017200	88.389085	-0.110042	-0.441654	15.586551	6.356524	-22.248509	-35.123826	38.043712	8.276955	47.304851	32.707198	22.582467	4.722408	48.640402	32.441108	11.373335	-4.638324	63.433277	42.632346	6.079000	-8.466399	62.477346	41.944938
-1.325000	-4.367428	-0.612882	99.545687	-0.102837	-0.193935	-0.017188	88.396516	-0.114293	-0.436987	15.569519	6.337994	-22.249429	-35.120907	38.043368	8.276085	47.315588	32.712768	22.585617	4.721270	48.656244	32.437773	11.393101	-4.641997	63.433818	42.625637	6.090862	-8.472139	62.466284	41.926522
-1.315000	-4.367428	-0.612882	99.545687	-0.102839	-0.193927	-0.017173	88.402281	-0.121453	-0.436624	15.557238	6.329858	-22.247192	-35.117319	38.037322	8.281555	47.332343	32.722335	22.592209	4.721234	48.676790	32.436232	11.419521	-4.649753	63.434218	42.617468	6.100008	-8.472472	62.464554	41.913364
-1.305000	-4.367428	-0.612882	99.545687	-0.102840	-0.193927	-0.017158	88.409680	-0.127545	-0.441273	15.549241	6.324330	-22.243885	-35.113414	38.028574	8.291335	47.351649	32.733924	22.601688	4.722474	48.701266	32.437660	11.450291	-4.661307	63.437202	42.609512	6.099942	-8.461449	62.475440	41.908660
-1.295000	-4.367428	-0.612882	99.545687	-0.102841	-0.193933	-0.017144	88.421779	-0.129484	-0.448729	15.543798	6.314634	-22.242751	-35.110389	38.018093	8.302257	47.369154	32.745287	22.610949	4.724588	48.727630	32.442422	11.480126	-4.674428	63.443776	42.602971	6.088488	-8.438693	62.497990	41.912517
-1.285000	-4.367428	-0.612882	99.545687	-0.102844	-0.193937	-0.017132	88.438961	-0.127347	-0.454405	15.539376	6.299487	-22.246649	-35.110105	38.005898	8.310800	47.381826	32.754926	22.615250	4.726989	48.753495	32.450004	11.502570	-4.685793	63.452778	42.598294	6.069758	-8.410125	62.526352	41.921012
-1.275000	-4.367428	-0.612882	99.545687	-0.102850	-0.193935	-0.017119	88.458033	-0.124663	-0.453200	15.535555	6.283869	-22.256708	-35.114402	37.992888	8.314007	47.389083	32.762447	22.610603	4.729204	48.776944	32.459376	11.512829	-4.692424	63.461785	42.595394	6.052085	-8.384882	62.551484	41.927592
